<svg width="810" height="566" viewBox="0 0 810 566" fill="none" xmlns="http://www.w3.org/2000/svg">
<circle cx="669.5" cy="167.5" r="17.5" fill="white"/>
<circle cx="632" cy="89" r="37" fill="white"/>
<path d="M630.976 124.381C611.889 124.381 596.417 108.908 596.417 89.8214C596.417 70.7347 611.889 55.2614 630.976 55.2614C650.063 55.2614 665.536 70.7347 665.536 89.8214C665.536 108.908 650.063 124.381 630.976 124.381ZM675.953 78.1681C674.86 73.9361 673.183 69.9387 671.016 66.2627L676.043 58.7027L669.068 51.7294L662.095 44.756L654.535 49.7814C650.859 47.6147 646.863 45.9374 642.629 44.844L640.839 35.9507H630.976H621.113L619.324 44.844C615.091 45.9374 611.095 47.6147 607.419 49.7814L599.859 44.756L592.885 51.7294L585.911 58.7027L590.937 66.2627C588.771 69.9387 587.093 73.9361 586 78.1681L577.107 79.9587V89.8214V99.684L586 101.473C587.093 105.707 588.771 109.704 590.937 113.379L585.911 120.939L592.885 127.913L599.859 134.887L607.419 129.86C611.095 132.027 615.091 133.704 619.324 134.799L621.113 143.691H630.976H640.839L642.629 134.799C646.863 133.704 650.859 132.027 654.535 129.86L662.095 134.887L669.068 127.913L676.043 120.939L671.016 113.379C673.183 109.704 674.86 105.707 675.953 101.473L684.847 99.684V89.8214V79.9587L675.953 78.1681Z" fill="#73C0FF"/>
<path d="M668.791 183.229C660.04 183.229 652.945 176.136 652.945 167.385C652.945 158.636 660.04 151.541 668.791 151.541C677.541 151.541 684.635 158.636 684.635 167.385C684.635 176.136 677.541 183.229 668.791 183.229ZM689.409 162.044C688.908 160.103 688.139 158.271 687.145 156.585L689.451 153.12L686.253 149.923L683.056 146.725L679.591 149.029C677.905 148.036 676.073 147.268 674.132 146.767L673.312 142.689H668.791H664.269L663.447 146.767C661.507 147.268 659.675 148.036 657.991 149.029L654.524 146.725L651.328 149.923L648.129 153.12L650.435 156.585C649.441 158.271 648.672 160.103 648.169 162.044L644.095 162.864V167.385V171.907L648.169 172.728C648.672 174.668 649.441 176.5 650.435 178.185L648.129 181.652L651.328 184.848L654.524 188.047L657.991 185.741C659.675 186.735 661.507 187.504 663.447 188.005L664.269 192.081H668.791H673.312L674.132 188.005C676.073 187.504 677.905 186.735 679.591 185.741L683.056 188.047L686.253 184.848L689.451 181.652L687.145 178.185C688.139 176.5 688.908 174.668 689.409 172.728L693.487 171.907V167.385V162.864L689.409 162.044Z" fill="#73C0FF"/>
<path d="M402.824 476.261H451.343V328.892H402.824V476.261Z" fill="#4DA8F2"/>
<path d="M238.912 399.881H615.255C627.024 399.881 636.563 390.34 636.563 378.572V125.635C636.563 113.867 627.024 104.327 615.255 104.327H238.912C227.144 104.327 217.604 113.867 217.604 125.635V378.572C217.604 390.34 227.144 399.881 238.912 399.881Z" fill="#B5DEFF"/>
<path d="M234.012 353.564H620.156V72.8694H234.012V353.564Z" fill="white"/>
<mask id="mask0_1_2" style="mask-type:luminance" maskUnits="userSpaceOnUse" x="234" y="72" width="387" height="35">
<path d="M234.012 106.772H620.156V72.8694H234.012V106.772Z" fill="white"/>
</mask>
<g mask="url(#mask0_1_2)">
<path d="M234.012 106.772H620.156V72.8694H234.012V106.772Z" fill="url(#paint0_linear_1_2)"/>
</g>
<path d="M413.569 374.759C413.569 382.221 419.619 388.273 427.084 388.273C434.548 388.273 440.597 382.221 440.597 374.759C440.597 367.295 434.548 361.244 427.084 361.244C419.619 361.244 413.569 367.295 413.569 374.759Z" fill="#4DA8F2"/>
<path d="M364.345 140.932H479.676C482.268 140.932 484.367 138.832 484.367 136.243V135.575C484.367 132.985 482.268 130.885 479.676 130.885H364.345C361.756 130.885 359.656 132.985 359.656 135.575V136.243C359.656 138.832 361.756 140.932 364.345 140.932Z" fill="#DFE1E8"/>
<path d="M364.345 159.051H479.676C482.268 159.051 484.367 156.951 484.367 154.36V153.693C484.367 151.104 482.268 149.004 479.676 149.004H364.345C361.756 149.004 359.656 151.104 359.656 153.693V154.36C359.656 156.951 361.756 159.051 364.345 159.051Z" fill="#DFE1E8"/>
<path d="M364.345 177.169H479.676C482.268 177.169 484.367 175.069 484.367 172.48V171.813C484.367 169.223 482.268 167.123 479.676 167.123H364.345C361.756 167.123 359.656 169.223 359.656 171.813V172.48C359.656 175.069 361.756 177.169 364.345 177.169Z" fill="#DFE1E8"/>
<path d="M273.777 204.732C263.221 204.732 254.633 213.321 254.633 223.879V311.925C254.633 322.483 263.221 331.071 273.777 331.071H418.524C429.08 331.071 437.668 322.483 437.668 311.925V223.879C437.668 213.321 429.08 204.732 418.524 204.732H273.777ZM418.524 333.815H273.777C261.709 333.815 251.889 323.996 251.889 311.925V223.879C251.889 211.808 261.709 201.989 273.777 201.989H418.524C430.593 201.989 440.412 211.808 440.412 223.879V311.925C440.412 323.996 430.593 333.815 418.524 333.815Z" fill="#DFE1E8"/>
<path d="M285.227 235.172H407.075C412.413 235.172 416.741 230.844 416.741 225.505V223.665C416.741 218.327 412.413 213.999 407.075 213.999H285.227C279.888 213.999 275.56 218.327 275.56 223.665V225.505C275.56 230.844 279.888 235.172 285.227 235.172Z" fill="#DFE1E8"/>
<path d="M536.223 481.824H317.944V470.699H536.223V481.824Z" fill="#B5DEFF"/>
<path d="M576.729 230.917C576.729 242.485 570.479 252.592 561.169 258.048C559.299 259.141 557.304 260.051 555.212 260.744C555.024 260.808 554.833 260.869 554.644 260.928C551.695 261.844 548.56 262.336 545.311 262.336C540.293 262.336 535.552 261.161 531.344 259.071C521 253.928 513.889 243.253 513.889 230.917C513.889 213.565 527.957 199.497 545.311 199.497C562.663 199.497 576.729 213.565 576.729 230.917Z" fill="#EEF0F7"/>
<path d="M537.804 227.601C537.804 227.601 535.659 213.717 547.157 213.973C558.656 214.229 558.501 221.095 558.296 227.908C558.092 234.721 553.685 234.209 558.656 243.688C563.624 253.165 554.352 253.165 554.352 253.165L547.157 243.277L537.804 227.601Z" fill="#3C4145"/>
<path d="M545.899 215.305C545.899 215.305 538.111 216.535 537.804 227.601C537.497 238.667 539.905 241.024 546.719 238.719C553.532 236.413 555.684 224.835 555.837 223.041C555.992 221.248 556.401 213.973 545.899 215.305Z" fill="#EEA886"/>
<path d="M559.573 253.795C559.597 257.109 557.824 259.327 555.212 260.744C555.024 260.808 554.833 260.869 554.644 260.928C551.695 261.844 548.56 262.336 545.311 262.336C540.293 262.336 535.552 261.161 531.344 259.071C530.396 257.181 531.769 254.499 534.556 250.381C536.468 247.552 538.345 244.663 541.556 243.259C546.291 242.504 551.305 242.459 554.836 244.455C557.652 246.047 559.528 248.935 559.573 253.795Z" fill="#E55353"/>
<path d="M536.08 250.215L532.5 255.857C532.508 255.827 532.747 254.972 533.152 252.497C533.228 252.028 533.312 251.5 533.4 250.908C533.425 250.733 533.463 250.559 533.512 250.388V250.387C535.045 246.855 539.824 244.227 539.997 244.139L536.08 250.215Z" fill="#E55353"/>
<path d="M561.169 258.048C559.299 259.141 557.304 260.051 555.212 260.744C555.024 260.808 554.833 260.869 554.644 260.928C553.849 258.877 553.161 257.104 553.011 256.644C552.968 256.512 552.865 256.261 552.725 255.925C552.08 254.356 550.635 250.868 550.617 248.137C550.607 246.379 551.187 244.935 552.957 244.525C553.656 244.364 554.279 244.353 554.836 244.455C556.815 244.813 557.968 246.589 558.611 248.164C558.623 248.192 558.632 248.217 558.641 248.244C559.179 249.583 559.347 250.753 559.347 250.753C559.347 250.753 559.379 250.877 559.436 251.1C559.547 251.539 559.759 252.372 560.035 253.465C560.349 254.72 560.747 256.313 561.169 258.048Z" fill="#EEA886"/>
<path d="M551.1 233.733C550.424 235.008 549.712 242.921 549.712 242.921C549.712 242.921 540.187 246.521 541.163 244.484C541.604 243.56 541.733 242.361 541.743 241.328C541.752 240.512 541.684 239.8 541.637 239.405C541.612 239.197 541.593 239.077 541.593 239.077C541.593 239.077 551.775 232.459 551.1 233.733Z" fill="#EEA886"/>
<path d="M542.723 223.247C542.723 223.247 546.719 229.752 550.356 232.315C553.995 234.876 552.149 236.925 552.149 236.925C552.149 236.925 561.64 216.944 552.616 215.561C543.593 214.179 538.06 214.076 537.804 227.601C537.804 227.601 541.903 223.144 542.723 223.247Z" fill="#3C4145"/>
<path d="M547.068 238.591C545.607 240.747 541.744 241.328 541.744 241.328C541.744 241.328 541.744 241.328 541.743 241.328C541.752 240.512 541.684 239.8 541.637 239.405C544.117 239.884 547.068 238.591 547.068 238.591Z" fill="#A77860"/>
<path d="M533.529 250.345C533.528 250.345 533.528 250.345 533.528 250.345C533.528 250.345 533.321 250.775 533.152 252.497L534.555 250.381C534.555 250.381 537.059 246.788 537.919 245.855C538.777 244.92 540.02 244.1 540.02 244.1C540.02 244.1 535.027 246.471 533.529 250.345Z" fill="#BD4444"/>
<path d="M552.481 255.703C552.481 255.703 558.595 253.304 560.403 253.165C560.403 253.165 559.173 243.349 553.168 244.389C547.164 245.429 552.481 255.703 552.481 255.703Z" fill="#E55353"/>
<path d="M541.556 243.259C541.556 243.259 537.068 250.16 538.587 250.761C540.107 251.365 548.329 249.957 551.827 243.403C551.827 243.403 546.599 240.721 541.556 243.259Z" fill="#EEA886"/>
<path d="M211.057 399.393L162.096 399.765L162.061 395.28L211.024 394.909L211.057 399.393Z" fill="#323657"/>
<path d="M225.392 352.571L211.073 399.393L206.784 398.083L221.104 351.261L225.392 352.571Z" fill="#323657"/>
<path d="M299.036 522.948H295.216V405.243H299.036V522.948Z" fill="#706865"/>
<path d="M151.879 405.243H319.799V398.551H151.879V405.243Z" fill="#B59074"/>
<path d="M173.363 522.951H177.184V405.243H173.363V522.951Z" fill="#706865"/>
<path d="M101.204 503.635H96.6104V445.664H101.204V503.635Z" fill="#918783"/>
<path d="M156.557 496.797C156.557 496.797 156.604 499.36 157.435 502.344C158.044 504.532 159.269 513.005 160.833 514.191C162.396 515.376 167.44 518.516 166.699 521.742C165.959 524.969 165.332 527.22 159.887 525.31C154.441 523.397 150.8 522.305 149.753 517.525C148.708 512.747 145.728 508.395 145.728 508.395L141.792 518.185L139.716 517.349C139.716 517.349 142.855 506.775 142.584 505.832C142.315 504.889 144.024 496.488 150.611 494.406C157.196 492.327 156.557 496.797 156.557 496.797Z" fill="#1D3B54"/>
<path d="M192.933 499.887C192.933 499.887 193.932 502.245 195.816 504.704C197.197 506.506 201.495 513.911 203.388 514.427C205.281 514.943 211.132 515.976 211.648 519.245C212.165 522.515 212.423 524.839 206.657 525.097C200.892 525.355 197.107 525.699 194.353 521.655C191.6 517.61 187.212 514.685 187.212 514.685V525.236H184.975C184.975 525.236 183.943 514.256 183.34 513.481C182.737 512.706 181.188 504.275 186.524 499.887C191.859 495.497 192.933 499.887 192.933 499.887Z" fill="#1D3B54"/>
<path d="M134.315 356.503C134.315 356.503 135.596 351.959 135.721 351.365C135.845 350.775 137.059 349.597 138.568 348.368C140.079 347.137 142.668 346.152 142.989 346.252C143.309 346.352 143.68 346.304 144.209 346.984C144.739 347.664 144.811 348.531 144.811 348.531C144.811 348.531 145.857 349.063 145.865 350.137C145.865 350.137 146.828 350.683 146.639 351.904C146.639 351.904 147.563 352.464 147.351 353.339C147.351 353.339 146.137 354.521 145.813 355.087C145.491 355.655 142.799 357.939 139.88 359.731C139.88 359.731 136.153 362.483 134.315 356.503Z" fill="#EEA886"/>
<path d="M139.891 352.901C139.891 352.901 140.443 354.815 140.327 355.431C140.209 356.045 144.695 356.135 144.695 356.135C144.695 356.135 142.233 352.293 139.891 352.901Z" fill="#CF8C6C"/>
<path d="M89.3964 364.316C91.2079 361.384 93.6229 360.063 101.296 365.371C108.969 370.676 107.167 369.637 109.004 371.32C110.841 373 118.892 377.209 118.892 377.209C118.892 377.209 123.594 372.535 125.849 369.212C128.392 365.469 133.699 355.469 133.699 355.469L141.139 361.008C141.139 361.008 126.684 387.216 123.665 389.153C120.646 391.089 111.549 387.849 106.813 385.855C102.078 383.859 97.064 381.276 94.9011 380.74C92.738 380.204 84.6735 371.964 89.3964 364.316Z" fill="#1D3B54"/>
<path d="M141.675 350.584L140.287 350.279L143.905 333.857L145.295 334.164L141.675 350.584Z" fill="#EB4747"/>
<path d="M142.581 346.559C142.581 346.559 138.831 349.771 139.273 350.439C139.715 351.105 140.283 351.083 140.283 351.083L139.339 353.105C139.339 353.105 139.469 354.796 141.273 354.16C141.273 354.16 141.232 355.753 142.9 354.931C142.9 354.931 143.341 355.993 144.183 355.749C145.023 355.505 147.351 353.339 147.351 353.339C147.351 353.339 147.636 352.663 146.639 351.904C146.639 351.904 146.889 350.745 145.865 350.137C145.865 350.137 145.921 349.176 144.811 348.531C144.811 348.531 144.767 346.381 142.989 346.252C142.989 346.252 142.739 346.423 142.581 346.559Z" fill="#DB9C7C"/>
<path d="M135.773 351.415C135.773 351.415 138.285 349.143 140.203 348.503C140.636 348.359 141.083 348.297 141.38 348.647C141.677 348.996 141.552 349.868 140.513 350.908C139.475 351.948 138.609 353.768 138.609 353.768C138.609 353.768 137.229 354.524 135.773 351.415Z" fill="#EEA886"/>
<path d="M125.165 380.233C125.165 380.233 126.675 374.759 124.896 370.519C124.896 370.519 125.573 374.907 123.651 378.027C122.259 380.288 125.165 380.233 125.165 380.233Z" fill="#152C3D"/>
<path d="M152.579 381.081C152.579 381.081 156.628 351.068 163.691 337.983H153.305C153.305 337.983 141.673 358.479 143.855 379.179L152.579 381.081Z" fill="#EDDAD3"/>
<path d="M155.064 358.612C155.064 358.612 156.249 356.404 156.535 355.683C156.82 354.963 157.984 356.213 157.808 357.139C157.633 358.064 155.064 358.612 155.064 358.612Z" fill="#EEA886"/>
<path d="M164.275 363.631C164.275 363.631 163.96 364.713 163.593 365.119C163.593 365.119 162.868 365.805 162.381 366.327C162.228 366.492 162.097 366.639 162.024 366.743C161.713 367.176 161.163 368.224 160.124 369.059C159.088 369.893 155.127 372.471 155.127 372.471L152.332 369.485L150.095 367.159C150.095 367.159 151.985 360.052 152.863 359.163C152.948 359.075 153.036 358.993 153.125 358.923C153.941 358.241 154.833 358.076 155.301 357.769C155.473 357.656 157.267 356.655 157.837 356.876C158.632 357.183 159.059 357.719 159.181 358.288C159.181 358.288 160.711 358.959 161.22 359.959C161.22 359.959 162.651 360.532 162.931 361.957C162.931 361.957 164.316 362.701 164.275 363.631Z" fill="#EEA886"/>
<path d="M182.66 441.135C182.66 441.135 175.797 456.575 170.899 467.593C170.077 469.448 169.308 471.176 168.637 472.684C167.852 474.452 167.2 475.916 166.751 476.928C163.633 483.941 155.964 499.237 155.964 499.237C155.964 499.237 150.195 499.457 149.86 494.557C149.86 494.557 155.396 483.941 155.396 476.483C155.396 469.022 156.397 447.048 163.524 442.297C172.215 436.505 177.857 435.408 182.66 441.135Z" fill="#EEA886"/>
<path d="M119.206 411.788C119.206 411.788 120.654 413.236 121.879 413.569C123.104 413.904 143.592 415.464 153.056 418.581C162.521 421.699 175.104 423.704 177.441 426.376C179.78 429.048 183.677 443.745 183.565 446.529C183.455 449.313 191.884 496.224 192.933 499.887C193.491 501.827 185.311 501.084 185.311 501.084C185.311 501.084 173.688 473.364 171.207 468.242C166.645 458.834 166.417 447.31 164.748 445.527C163.077 443.745 144.483 439.737 133.793 439.737C123.104 439.737 99.164 440.628 96.6026 439.18C94.0417 437.732 78.0079 427.155 84.6891 413.013C91.3693 398.873 119.206 411.788 119.206 411.788Z" fill="#EEA886"/>
<path d="M165.444 421.915L148.485 454.548C148.485 454.548 143.377 442.439 134.465 440.353C125.552 438.271 89.9849 439.387 89.9849 439.387C89.9849 439.387 73.664 418.741 87.6407 407.911C101.617 397.08 117.939 409.615 117.939 409.615C117.939 409.615 121.311 413.271 122.942 413.351C134.801 413.941 147.447 416.151 165.444 421.915Z" fill="#1D3B54"/>
<path d="M203.388 514.427C203.388 514.427 198.225 515.718 196.247 514.427C194.268 513.137 187.539 501.765 185.311 501.084C185.311 501.084 187.471 496.703 192.933 499.887C192.933 499.887 201.925 512.535 203.388 514.427Z" fill="#EEA886"/>
<path d="M160.833 514.191C160.833 514.191 155.561 513.461 154.207 511.525C152.852 509.591 150.852 496.529 149.037 495.065C149.037 495.065 152.676 491.805 156.557 496.797C156.557 496.797 160.181 511.887 160.833 514.191Z" fill="#EEA886"/>
<path d="M106.969 309.305C111.043 309.108 120.077 311.157 121.469 321.951C121.469 321.951 121.143 324.86 120.437 327.148C119.731 329.433 121.779 336.175 121.245 336.508C120.71 336.839 118.501 337.265 118.501 337.265C118.501 337.265 116.125 344.629 113.539 344.567C110.954 344.503 101.166 342.483 96.5563 333.32C91.9469 324.159 90.5229 310.101 106.969 309.305Z" fill="#EEA886"/>
<path d="M110.046 341.208C110.046 341.208 109.729 342.24 109.367 343.772C109.182 344.555 108.986 345.467 108.816 346.439C108.347 349.125 108.071 352.267 108.768 354.357C108.768 354.357 103.052 356.337 98.5355 348.259C98.5355 348.259 100.475 339.555 97.9541 334.276C95.4344 329 110.046 341.208 110.046 341.208Z" fill="#EEA886"/>
<path d="M121.469 321.951C121.469 321.951 115.22 327.56 108.61 327.116C101.897 326.664 97.5396 335.053 97.5396 335.053C97.5396 335.053 87.5479 322.513 95.6027 312.376C103.658 302.235 122.897 309.369 121.469 321.951Z" fill="#1D3B54"/>
<path d="M105.566 327.067C105.531 325.796 104.117 323.889 102.036 325.625C99.9536 327.363 102.753 333.401 104.459 332.811C106.165 332.219 105.604 328.38 105.566 327.067Z" fill="#EEA886"/>
<path d="M109.367 343.772C109.182 344.555 108.986 345.467 108.816 346.439C103.507 343.067 100.835 338.975 100.835 338.975C103.87 341.719 109.367 343.772 109.367 343.772Z" fill="#A77860"/>
<path d="M124.864 374.648C123.66 380.224 120.494 380.516 120.686 384.636C120.878 388.755 122.108 389.108 119.978 395.604C119.584 396.805 119.264 398.115 119.005 399.451C118.975 399.608 118.943 399.768 118.917 399.927C118.777 400.676 118.659 401.432 118.557 402.176C118.367 403.555 118.231 404.901 118.135 406.131C117.885 409.336 120.245 411.811 120.245 411.811C120.245 411.811 99.4036 424.297 85.0953 422.545C85.0953 422.545 88.7995 406.975 90.8401 401.625C92.8797 396.277 92.2636 371.563 90.7625 366.26C88.5473 358.433 92.9729 346.699 99.0224 345.169L108.403 349.513C108.403 349.513 117.851 360.797 119.971 362.5C122.089 364.205 126.085 368.993 124.864 374.648Z" fill="#1D3B54"/>
<path d="M93.8588 351.8C96.5079 349.595 100.341 345.819 105.932 353.287C111.523 360.756 115.591 365.568 116.799 367.747C118.008 369.925 128.518 385.099 128.518 385.099C128.518 385.099 134.101 379.915 137.295 377.483C140.893 374.74 150.701 364.521 150.701 364.521L157.184 371.709C157.184 371.709 134.695 396.664 131.218 397.543C127.74 398.423 118 389.659 114.143 386.261C110.286 382.865 99.4631 370.497 97.5828 369.301C95.7027 368.107 86.9511 357.553 93.8588 351.8Z" fill="#1D3B54"/>
<path d="M170.899 467.593C170.077 469.448 169.308 471.176 168.637 472.684C166.113 464.568 166.321 451.005 166.321 451.005C167.837 460.461 170.853 467.485 170.899 467.593Z" fill="#A77860"/>
<path d="M62.2297 439.387H134.465V447.336H62.2297V439.387Z" fill="#B5DEFF"/>
<path d="M99.8177 414.032C99.8177 414.032 97.9969 421.396 106.571 423.069C115.146 424.743 125.69 426.88 125.69 440.108H95.9527L99.8177 414.032Z" fill="#B5DEFF"/>
<path d="M143.905 333.857L145.133 331.595L145.295 334.164L143.905 333.857Z" fill="#EEA886"/>
<path d="M62.2297 447.336L36.9765 341.203C36.9765 341.203 82.6307 334.069 88.0697 354.571C93.5088 375.073 102.457 435.971 113.335 439.736C124.214 443.501 62.2297 447.336 62.2297 447.336Z" fill="#B5DEFF"/>
<path d="M120.952 392.059C120.952 392.059 120.486 394.007 119.99 395.619L108.882 381.215L120.952 392.059Z" fill="#152C3D"/>
<path d="M93.1063 326.04C93.1063 326.04 97.4973 337.64 96.3031 340.808C96.3031 340.808 103.157 337.881 101.906 330.28C100.655 322.681 93.1063 326.04 93.1063 326.04Z" fill="#1D3B54"/>
<path d="M108.943 350.159V347.863L99.1973 343.116L95.8254 347.011L108.943 350.159Z" fill="#1D3B54"/>
<path d="M143.492 518.601C143.492 520.687 141.801 522.377 139.716 522.377C137.631 522.377 135.94 520.687 135.94 518.601C135.94 516.515 137.631 514.825 139.716 514.825C141.801 514.825 143.492 516.515 143.492 518.601Z" fill="#BFB2AC"/>
<path d="M58.4536 514.859L59.4099 517.549L99.8177 505.029L97.8807 499.581L58.4536 514.859Z" fill="#918783"/>
<path d="M139.716 514.859L138.76 517.549L98.3521 505.029L100.128 499.24L139.716 514.859Z" fill="#918783"/>
<path d="M111.246 517.261V520.391L98.3521 505.029L100.128 499.24L111.246 517.261Z" fill="#918783"/>
<path d="M111.567 518.601C111.567 520.687 109.876 522.377 107.791 522.377C105.705 522.377 104.014 520.687 104.014 518.601C104.014 516.515 105.705 514.825 107.791 514.825C109.876 514.825 111.567 516.515 111.567 518.601Z" fill="#BFB2AC"/>
<path d="M62.2297 518.601C62.2297 520.687 60.5396 522.377 58.4536 522.377C56.3677 522.377 54.6776 520.687 54.6776 518.601C54.6776 516.515 56.3677 514.825 58.4536 514.825C60.5396 514.825 62.2297 516.515 62.2297 518.601Z" fill="#BFB2AC"/>
<path d="M588.335 139.251C588.335 149.269 584.733 158.441 578.756 165.552C577.356 167.215 575.829 168.764 574.187 170.184C573.719 170.588 573.239 170.985 572.752 171.367C572.201 171.803 571.64 172.221 571.068 172.629C565.687 176.443 559.343 178.988 552.475 179.828C551.265 179.977 550.037 180.072 548.796 180.112C548.351 180.127 547.903 180.133 547.453 180.133C546.131 180.133 544.823 180.071 543.533 179.948C542.092 179.811 540.672 179.6 539.279 179.315C533.085 178.059 527.4 175.403 522.568 171.688C521.109 170.569 519.731 169.356 518.441 168.053C518.189 167.801 517.941 167.544 517.697 167.284C516.78 166.316 515.916 165.303 515.103 164.248C509.752 157.336 506.569 148.665 506.569 139.251C506.569 116.672 524.875 98.3667 547.453 98.3667C570.032 98.3667 588.335 116.672 588.335 139.251Z" fill="#EEF0F7"/>
<path d="M574.084 161.809L571.068 172.629C565.687 176.443 559.343 178.988 552.475 179.828C551.265 179.977 550.037 180.072 548.796 180.112C548.351 180.127 547.903 180.133 547.453 180.133C546.131 180.133 544.823 180.071 543.533 179.948C542.092 179.811 540.672 179.6 539.279 179.315C533.085 178.059 527.4 175.403 522.568 171.688C521.991 168.111 521.369 164.152 520.823 160.449C523.828 159.331 533.391 156.079 539.427 154.037C539.511 154.008 539.596 153.981 539.677 153.953C539.811 153.907 539.941 153.863 540.069 153.821C540.428 153.7 540.769 153.584 541.095 153.475C541.425 153.363 541.74 153.257 542.033 153.156C543.269 152.74 544.141 152.447 544.452 152.344C544.455 152.341 544.455 152.341 544.457 152.341C544.539 152.313 544.58 152.299 544.58 152.299L544.651 152.303L552.767 152.911L554.127 153.012L554.552 153.044C554.552 153.044 554.613 153.059 554.736 153.091C555.225 153.215 556.648 153.588 558.531 154.163C558.533 154.163 558.537 154.164 558.54 154.164C563.345 155.636 571.144 158.429 574.084 161.809Z" fill="#D9C7C1"/>
<path d="M549.581 118.951C549.581 118.951 559.315 120.593 557.664 135.831C556.012 151.069 547.423 149.725 546.845 149.704C546.272 149.683 538.205 149.888 537.779 131.256C537.779 131.256 537.656 117.48 549.581 118.951Z" fill="#EEA987"/>
<path d="M553.845 145.287C553.845 145.287 553.511 151.557 554.103 152.923C554.696 154.288 546.287 158.607 541.063 153.688C541.063 153.688 542.119 146.832 541.791 144.412C541.463 141.991 553.845 145.287 553.845 145.287Z" fill="#EEA987"/>
<path d="M557.863 131.524C557.863 131.524 558.943 130.395 559.321 131.553C559.7 132.713 557.596 137.849 557.727 138.081C557.727 138.081 557.528 138.527 557.275 138.277C557.02 138.028 557.863 131.524 557.863 131.524Z" fill="#EEA987"/>
<path d="M537.891 131.113C537.891 131.113 536.857 129.941 536.432 131.084C536.005 132.225 537.561 137.355 537.756 137.671C537.756 137.671 538.091 138.197 538.355 137.959C538.617 137.72 537.891 131.113 537.891 131.113Z" fill="#EEA987"/>
<path d="M558.485 130.229C558.148 132.315 557.833 133.864 557.833 133.864L556.416 135.713C556.416 135.713 556.5 131.623 556.283 130.98C556.201 130.736 556.105 130.305 556.005 129.839C555.841 129.068 555.676 128.197 555.561 127.908C555.38 127.444 547.22 125.061 539.951 128.408C539.951 128.408 540.013 129.037 540.008 129.739C540.007 130.556 539.917 131.469 539.543 131.608C538.845 131.863 539.136 136.395 539.136 136.395L538.003 135.088C538.003 135.088 537.675 132.72 537.353 129.999C537.353 129.999 537.352 129.992 537.351 129.979C537.277 129.344 537.203 128.692 537.132 128.044C536.969 125.307 537.24 120.336 540.805 117.417C543.211 116.387 547.051 115.512 553.451 117.472C553.451 117.472 554.92 117.569 555.332 117.967C559.319 122.353 558.485 130.229 558.485 130.229Z" fill="#E8734D"/>
<path d="M542.459 147.667C542.459 147.667 544.012 149.824 547.621 149.743C551.231 149.661 552.797 147.779 552.797 147.779C552.797 147.779 551.089 151.353 547.605 151.315C544.119 151.277 542.459 147.667 542.459 147.667Z" fill="#C78D71"/>
<path d="M540.071 153.819C540.071 153.819 542.679 158.36 547.628 158.788C550.769 159.059 553.487 155.081 554.76 153.127C554.76 153.127 547.729 150.117 540.071 153.819Z" fill="#EEA987"/>
<path d="M553.857 151.691C553.857 151.691 551.868 154.297 547.628 157.087L550.265 161.149L554.76 153.127L553.857 151.691Z" fill="#EDDAD3"/>
<path d="M541.261 152.299C541.261 152.299 543.793 155.472 547.628 157.087L544.735 161.272L539.677 153.952L541.261 152.299Z" fill="#EDDAD3"/>
<path d="M547.628 157.087L549.888 160.525C549.888 160.525 547.516 161.867 545.309 160.44L547.628 157.087Z" fill="#5073AB"/>
<path d="M576.695 161.171C576.695 161.171 576.672 161.248 576.629 161.396C576.381 162.279 575.428 165.672 574.187 170.184C573.719 170.588 573.239 170.985 572.752 171.367C572.201 171.803 571.64 172.221 571.068 172.629C565.687 176.443 559.343 178.988 552.475 179.828C553.08 165.676 554.76 153.127 554.76 153.127C556.085 153.475 557.341 153.821 558.531 154.163C558.533 154.163 558.537 154.164 558.54 154.164C568.913 157.141 574.173 159.755 575.968 160.747C575.983 160.752 575.996 160.761 576.007 160.768C576.476 161.029 576.695 161.171 576.695 161.171Z" fill="#323657"/>
<path d="M539.279 179.315C533.085 178.059 527.4 175.403 522.568 171.688C521.109 170.569 519.731 169.356 518.441 168.053C518.189 167.801 517.941 167.544 517.697 167.284C516.981 164.245 516.505 162.261 516.475 162.133L516.473 162.127C516.473 162.127 521.532 158.803 539.427 154.027C539.427 154.027 539.427 154.032 539.427 154.037C539.427 154.447 539.437 165.927 539.279 179.315Z" fill="#323657"/>
<path d="M548.923 160.903C548.756 164.629 548.739 171.861 548.796 180.112C548.351 180.127 547.903 180.133 547.453 180.133C546.131 180.133 544.823 180.071 543.533 179.948C544.32 169.772 545.645 163.409 546.249 160.892C546.447 160.067 546.568 159.656 546.568 159.656L548.967 160.052C548.949 160.312 548.936 160.595 548.923 160.903Z" fill="#5073AB"/>
<path d="M578.756 165.552C577.356 167.215 575.829 168.764 574.187 170.184C573.719 170.588 573.239 170.985 572.752 171.367L575.968 160.747L575.969 160.743C575.983 160.751 575.996 160.757 576.007 160.768C576.205 160.896 576.411 161.108 576.629 161.396C577.261 162.221 577.984 163.671 578.756 165.552Z" fill="#323657"/>
<path d="M518.441 168.053C518.189 167.801 517.941 167.544 517.697 167.284C516.78 166.316 515.916 165.303 515.103 164.248C515.563 163.144 516.024 162.403 516.473 162.127L516.475 162.133L518.441 168.053Z" fill="#323657"/>
<path d="M300.609 96.2267H254.745C252.201 96.2267 250.139 94.1654 250.139 91.6214V88.0214C250.139 85.4774 252.201 83.4147 254.745 83.4147H300.609C303.153 83.4147 305.215 85.4774 305.215 88.0214V91.6214C305.215 94.1654 303.153 96.2267 300.609 96.2267Z" fill="#F5F7FF"/>
<path d="M261.565 154.812C261.647 148.476 264.693 142.871 269.368 139.303C272.775 136.699 277.04 135.176 281.655 135.235C290.139 135.343 297.308 140.764 300.044 148.293L300.049 148.304C300.699 150.096 301.097 152.005 301.205 153.995C301.228 154.433 301.235 154.876 301.232 155.323C301.173 159.807 299.631 163.921 297.081 167.209C293.4 171.957 287.615 174.983 281.147 174.899C279.007 174.871 276.956 174.507 275.037 173.857C267.113 171.179 261.453 163.632 261.565 154.812ZM272.916 180.129C275.472 180.996 278.211 181.48 281.059 181.517C289.688 181.628 297.407 177.596 302.316 171.267C305.72 166.877 307.776 161.387 307.849 155.407C307.857 154.813 307.845 154.22 307.815 153.636C307.673 150.979 307.139 148.427 306.268 146.032C302.62 135.991 293.056 128.761 281.741 128.615C275.644 128.536 270.005 130.525 265.487 133.935C259.175 138.693 255.056 146.215 254.948 154.728C254.797 166.487 262.344 176.553 272.916 180.129Z" fill="#78C2FF"/>
<path d="M297.081 167.211L302.315 171.265C297.405 177.596 289.688 181.628 281.059 181.517C278.211 181.481 275.473 180.996 272.915 180.129L275.039 173.859C276.957 174.507 279.009 174.871 281.144 174.897C287.613 174.981 293.399 171.957 297.081 167.211Z" fill="#1A598C"/>
<path d="M301.203 153.993L307.815 153.635C307.845 154.22 307.859 154.812 307.849 155.407C307.773 161.387 305.719 166.877 302.315 171.265L297.081 167.211C299.632 163.921 301.172 159.805 301.231 155.323C301.236 154.876 301.227 154.432 301.203 153.993Z" fill="#2273B5"/>
<path d="M301.205 153.995C301.097 152.005 300.699 150.096 300.049 148.304L300.044 148.293L306.268 146.032C307.139 148.427 307.673 150.979 307.815 153.636L301.205 153.995Z" fill="#2273B5"/>
<path d="M265.487 133.935C270.005 130.525 275.644 128.536 281.741 128.615C293.056 128.761 302.62 135.991 306.268 146.032L300.049 148.304L300.044 148.293C297.308 140.764 290.139 135.343 281.655 135.235C277.04 135.176 272.775 136.699 269.368 139.303L265.487 133.935Z" fill="#4DA8F2"/>
<path d="M478.2 232.829H461.064C457.659 232.829 454.897 230.068 454.897 226.663V209.527C454.897 206.121 457.659 203.36 461.064 203.36H478.2C481.607 203.36 484.367 206.121 484.367 209.527V226.663C484.367 230.068 481.607 232.829 478.2 232.829Z" fill="#78C2FF"/>
<path d="M468.7 224.585L461.249 218.091C460.639 217.557 460.575 216.631 461.108 216.02C461.64 215.409 462.567 215.347 463.177 215.879L468.445 220.471L475.957 212.092C476.5 211.488 477.428 211.439 478.031 211.979C478.635 212.52 478.684 213.448 478.143 214.052L468.7 224.585Z" fill="#F3F3F3"/>
<path d="M478.2 270.591H461.064C457.659 270.591 454.897 267.831 454.897 264.424V247.289C454.897 243.884 457.659 241.123 461.064 241.123H478.2C481.607 241.123 484.367 243.884 484.367 247.289V264.424C484.367 267.831 481.607 270.591 478.2 270.591Z" fill="#78C2FF"/>
<path d="M468.7 262.348L461.249 255.853C460.639 255.32 460.575 254.393 461.108 253.783C461.64 253.172 462.567 253.108 463.177 253.64L468.445 258.233L475.957 249.855C476.5 249.251 477.428 249.2 478.031 249.741C478.635 250.281 478.684 251.209 478.143 251.813L468.7 262.348Z" fill="#F3F3F3"/>
<path d="M478.2 308.353H461.064C457.659 308.353 454.897 305.592 454.897 302.187V285.052C454.897 281.645 457.659 278.885 461.064 278.885H478.2C481.607 278.885 484.367 281.645 484.367 285.052V302.187C484.367 305.592 481.607 308.353 478.2 308.353Z" fill="#78C2FF"/>
<path d="M361.539 482.849C361.539 482.849 362.428 488.823 363.024 491.369C363.62 493.917 369.128 501.223 369.031 502.467C368.933 503.709 366.603 505.173 365.431 504.172C364.259 503.172 356.475 495.175 354.812 491.749C353.148 488.324 347.644 483.857 347.081 482.336C346.519 480.815 353.573 476.365 355.389 475.656C357.207 474.945 361.539 482.849 361.539 482.849Z" fill="#1D2033"/>
<path d="M347.745 376.579C347.745 376.579 348.473 380.388 349.009 381.092C349.545 381.796 350.993 385.337 351.139 385.836C351.285 386.333 352.176 389.911 352.327 390.363C352.477 390.816 351.46 391.521 350.764 390.565C350.331 389.972 349.572 387.657 349.264 386.909C348.955 386.163 348.007 383.799 347.751 384.229C347.495 384.661 347.556 387.831 347.513 388.647C347.472 389.461 347.989 391.969 348.232 393.007C348.475 394.045 349.856 398.396 349.301 398.631C348.748 398.865 348.28 398.801 347.565 397.633C347.565 397.633 346.433 398.267 345.773 396.833C345.773 396.833 344.76 397.201 344.133 395.333C344.133 395.333 343.413 394.939 343.133 394.269C342.855 393.6 341.213 387.876 341.228 385.54C341.243 383.207 341.791 381.579 341.691 379.932C341.591 378.283 340.747 374.759 340.747 374.759L347.745 376.579Z" fill="#EEA886"/>
<path d="M357.509 474.72L355.389 475.656L361.539 482.849L363.576 480.595L357.509 474.72Z" fill="#50558A"/>
<path d="M379 489.793C379 489.793 377.632 493.093 376.477 494.4C375.324 495.709 370.905 498.047 370.881 501.93C370.856 506.143 378.331 504.973 381.253 504.82C384.176 504.664 384.397 502.415 385.628 500.03C386.86 497.647 388.1 498.051 388.331 496.125C388.561 494.204 387.388 489.897 387.388 489.897L379 489.793Z" fill="#1D2033"/>
<path d="M378.873 488.575L378.66 490.573C378.66 490.573 383.257 492.225 387.604 490.745L387.361 488.015L378.873 488.575Z" fill="#50558A"/>
<path d="M381.421 434.071C381.292 427.1 378.191 388.032 378.519 388.032C380.045 388.032 388.641 425.236 388.96 430.472C389.027 431.544 387.685 433.943 385.519 437.1C384.544 438.522 383.401 440.095 382.145 441.771L382.143 441.772C381.716 437.943 381.44 435.127 381.421 434.071ZM404.372 437.822C404.372 432.629 400.581 387.324 400.753 385.593C400.868 384.464 399.663 373.617 398.809 366.208C398.803 366.144 398.795 366.08 398.787 366.019C398.787 366.003 398.783 365.988 398.783 365.973C398.541 363.892 398.332 362.097 398.191 360.893C398.125 360.336 398.075 359.904 398.043 359.631C398.015 359.404 398.001 359.284 398.001 359.284C398.001 359.284 373.549 354.463 360.872 359.017C360.343 359.209 359.835 359.415 359.349 359.639C359.349 359.639 359.319 359.855 359.263 360.26C359.136 361.197 358.871 363.152 358.519 365.808C358.459 366.256 358.396 366.723 358.331 367.209C356.527 380.869 357.685 395.715 360.844 410.912C363.943 425.82 365.648 436.97 365.967 439.135C366.388 441.976 367.631 449.792 369.007 458.364C362.277 466.664 356.54 473.722 356.968 474.423C358.031 476.157 367.472 485.934 367.992 484.203C367.992 484.203 369.697 482.272 372.368 479.195C373.217 484.439 373.799 488.016 373.799 488.016C373.799 488.016 384.148 490.488 387.957 488.237C387.957 488.237 386.46 476.865 384.899 464.5C394.4 453.125 404.372 440.541 404.372 437.822Z" fill="#292C47"/>
<path d="M408.455 294.481L401.88 318.071C401.655 318.835 401.385 319.776 401.099 320.872L401.088 320.913C401.084 320.923 401.081 320.932 401.08 320.941C399.983 325.147 398.625 331.556 398.221 338.677C397.947 343.532 398.847 363.049 398.847 363.049C398.847 363.049 388.896 366.761 374.008 365.821C374.008 365.821 357.995 365.447 359.3 355.628C362.756 329.641 359.376 318.927 358.924 316.317C358.924 316.317 356.751 303.695 355.195 293.119C359.7 291.441 378.951 284.969 378.951 284.969L388.923 285.716C388.923 285.716 404.077 289.447 408.455 294.481Z" fill="#D9C7C1"/>
<path d="M383.952 251.621C383.952 251.621 393.687 253.264 392.035 268.501C390.384 283.741 381.793 282.396 381.217 282.375C380.643 282.353 372.576 282.559 372.151 263.927C372.151 263.927 372.027 250.152 383.952 251.621Z" fill="#EEA987"/>
<path d="M388.217 277.957C388.217 277.957 387.881 284.229 388.473 285.595C389.067 286.959 380.659 291.277 375.433 286.359C375.433 286.359 376.491 279.503 376.163 277.081C375.833 274.661 388.217 277.957 388.217 277.957Z" fill="#EEA987"/>
<path d="M392.233 264.195C392.233 264.195 393.313 263.067 393.692 264.224C394.071 265.384 391.967 270.52 392.099 270.752C392.099 270.752 391.899 271.199 391.644 270.949C391.391 270.7 392.233 264.195 392.233 264.195Z" fill="#EEA987"/>
<path d="M372.263 263.784C372.263 263.784 371.229 262.612 370.803 263.755C370.376 264.896 371.933 270.025 372.127 270.341C372.127 270.341 372.463 270.868 372.725 270.629C372.989 270.391 372.263 263.784 372.263 263.784Z" fill="#EEA987"/>
<path d="M392.856 262.9C392.52 264.985 392.203 266.535 392.203 266.535L390.787 268.385C390.787 268.385 390.871 264.295 390.653 263.652C390.572 263.408 390.475 262.976 390.376 262.509C390.213 261.739 390.048 260.868 389.933 260.579C389.751 260.116 381.591 257.732 374.323 261.079C374.323 261.079 374.385 261.708 374.38 262.411C374.377 263.227 374.288 264.141 373.913 264.279C373.217 264.533 373.508 269.067 373.508 269.067L372.375 267.759C372.375 267.759 372.047 265.391 371.724 262.669C371.724 262.669 371.723 262.664 371.723 262.651C371.649 262.016 371.575 261.363 371.503 260.716C371.341 257.977 371.612 253.008 375.176 250.088C377.581 249.057 381.421 248.183 387.823 250.143C387.823 250.143 389.291 250.241 389.703 250.637C393.689 255.025 392.856 262.9 392.856 262.9Z" fill="#E8734D"/>
<path d="M376.831 280.337C376.831 280.337 378.384 282.496 381.993 282.413C385.603 282.332 387.168 280.451 387.168 280.451C387.168 280.451 385.46 284.024 381.976 283.987C378.491 283.948 376.831 280.337 376.831 280.337Z" fill="#C78D71"/>
<path d="M374.441 286.491C374.441 286.491 377.051 291.032 382 291.459C385.139 291.731 387.857 287.752 389.131 285.797C389.131 285.797 382.101 282.788 374.441 286.491Z" fill="#EEA987"/>
<path d="M388.228 284.361C388.228 284.361 386.239 286.969 382 289.759L384.636 293.82L389.131 285.797L388.228 284.361Z" fill="#EDDAD3"/>
<path d="M375.632 284.969C375.632 284.969 378.164 288.144 382 289.759L379.107 293.941L374.048 286.623L375.632 284.969Z" fill="#EDDAD3"/>
<path d="M382 289.759L384.259 293.196C384.259 293.196 381.887 294.537 379.681 293.109L382 289.759Z" fill="#5073AB"/>
<path d="M358.755 367.589C358.755 367.589 370.968 372.095 398.587 367.849L398.22 362.849C398.22 362.849 382.211 367.573 359.243 363.528L358.755 367.589Z" fill="#1D2033"/>
<path d="M389.131 285.797C389.131 285.797 386.276 307.131 386.667 325.531C387.057 343.932 400.956 377.347 400.956 377.347C400.956 377.347 407.031 371.472 409.675 368.145C409.675 368.145 400.217 340.856 400.391 335.933C400.564 331.011 411.064 293.841 411.064 293.841C411.064 293.841 405.229 290.036 389.131 285.797Z" fill="#323657"/>
<path d="M373.799 286.699C373.799 286.699 373.821 307.131 373.429 325.531C373.039 343.932 370.615 378.187 370.615 378.187C370.615 378.187 357.012 376.033 354.368 372.707C354.368 372.707 359.879 340.856 359.705 335.933C359.532 331.011 350.845 294.799 350.845 294.799C350.845 294.799 355.901 291.473 373.799 286.699Z" fill="#323657"/>
<path d="M382.915 369.969H375.412V364.389H382.915V369.969Z" fill="#3A4066"/>
<path d="M380.94 292.327C380.94 292.327 377.587 303.765 377.295 326.485C377.003 349.204 377.707 355.719 377.707 355.719L380.323 360.895L383.809 355.493C383.809 355.493 382.692 303.215 383.339 292.724L380.94 292.327Z" fill="#5073AB"/>
<path d="M400.199 377.54C400.199 377.54 401.019 376.993 401.244 376.605C401.244 376.605 401.591 375.869 401.873 375.359C401.964 375.199 402.048 375.059 402.112 374.975C402.38 374.619 403.092 373.908 403.463 372.899C403.833 371.892 404.143 367.199 404.143 367.199L401.265 366.353L398.704 365.227C398.704 365.227 393.097 369.525 392.627 370.432C392.581 370.52 392.54 370.608 392.509 370.696C392.196 371.495 392.351 372.201 392.241 372.636C392.203 372.795 391.939 374.408 392.316 374.765C392.84 375.261 393.437 375.42 393.964 375.343C393.964 375.343 395.039 376.275 396.06 376.359C396.06 376.359 397.02 377.247 398.329 377.037C398.329 377.037 399.419 377.841 400.199 377.54Z" fill="#EEA886"/>
<path d="M396.528 364.709C396.528 364.709 400.419 368.139 405.871 369.969C405.871 369.969 423.945 340.516 424.173 338.392C424.385 336.425 415.207 296.376 411.064 293.841L403.543 315.868C404.041 315.721 412.104 332.6 412.135 334.771C412.179 337.68 396.528 364.709 396.528 364.709Z" fill="#323657"/>
<path d="M349.873 380.563C349.873 380.563 345.812 381.319 339.936 380.987C339.936 380.987 342.225 343.181 341.997 341.055C341.785 339.089 346.704 297.333 350.845 294.799L358.232 317.055C357.733 316.909 353.28 339.823 353.249 341.993C353.205 344.903 349.873 380.563 349.873 380.563Z" fill="#323657"/>
<path d="M391.797 368.893L403.411 374.917L398.845 383.369L388.961 372.8L391.797 368.893Z" fill="#292C47"/>
<path d="M385.519 437.1L384.345 460.084L382.145 441.772V441.771C383.401 440.095 384.544 438.522 385.519 437.1Z" fill="#1D2033"/>
<path d="M333.841 157.72H327.063V179.948H333.841V157.72Z" fill="#78C2FF"/>
<path d="M576.729 305.795C576.729 323.081 562.723 337.213 545.311 337.213C527.925 337.213 513.889 323.115 513.889 305.795C513.889 288.441 527.957 274.373 545.311 274.373C562.663 274.373 576.729 288.441 576.729 305.795Z" fill="#EEF0F7"/>
<path d="M322.731 163.955H315.952V179.948H322.731V163.955Z" fill="#78C2FF"/>
<path d="M344.952 147.419H338.173V179.948H344.952V147.419Z" fill="#78C2FF"/>
<path d="M620.6 395.841H664.201V398.431H620.6V395.841Z" fill="#E2D2CA"/>
<path d="M658.357 522.873H654.537V405.165H658.357V522.873Z" fill="#706865"/>
<path d="M597.116 395.108H627.424V398.805H597.116V395.108Z" fill="#CCBDB7"/>
<path d="M606.532 398.431H618.008V363.571H606.532V398.431Z" fill="#4667A8"/>
<path d="M511.923 405.165H679.841V398.473H511.923V405.165Z" fill="#B59074"/>
<path d="M712.069 357.964C712.069 357.964 713.905 383.72 708.873 386.803C705.721 388.733 693.152 395.245 693.524 396.467C693.896 397.688 700.621 407.333 700.621 407.333C700.621 407.333 724.765 391.436 725.544 386.425C726.304 381.531 724.355 348.715 721.037 347.203C718.552 346.069 717.239 347.007 714.108 349.332C709.711 352.597 712.069 357.964 712.069 357.964Z" fill="#FFC05C"/>
<path d="M682.364 506.803C682.364 506.803 683.113 512.013 683.209 512.796C683.303 513.579 691.56 512.335 691.56 512.335L692.228 506.13C692.228 506.13 683.396 506.067 682.364 506.803Z" fill="#424773"/>
<path d="M683.121 512.134C683.121 512.134 680.504 515.275 677.973 516.643C675.444 518.011 671.467 518.553 669.969 519.971C668.889 520.993 666.036 525.395 676.547 525.306C687.056 525.217 692.123 525.928 693.249 524.24C694.376 522.553 691.62 511.78 691.62 511.78C691.62 511.78 689.131 512.676 683.121 512.134Z" fill="#292C47"/>
<path d="M629.456 506.852C629.456 506.852 630.207 512.063 630.3 512.844C630.393 513.628 638.652 512.384 638.652 512.384L639.321 506.18C639.321 506.18 630.489 506.116 629.456 506.852Z" fill="#424773"/>
<path d="M630.213 512.183C630.213 512.183 627.596 515.324 625.064 516.692C622.535 518.06 613.223 519.185 611.725 520.603C610.647 521.623 608.849 525.741 623.637 525.356C634.144 525.083 639.216 525.977 640.34 524.289C641.468 522.603 638.712 511.83 638.712 511.83C638.712 511.83 636.367 512.787 630.213 512.183Z" fill="#292C47"/>
<path d="M709 416.784C709 416.784 678.976 421.864 672.196 422.928C665.415 423.993 628.647 433.143 624.049 435.93C620.389 438.149 625.968 491.447 627.272 511.78H641.753L642.804 450.784C660.183 451.22 672.584 446.72 685.239 448.641C697.893 450.563 708.444 453.295 716.485 442.508C716.485 442.508 716.783 419.139 709 416.784Z" fill="#292C47"/>
<path d="M679.407 511.83L693.52 510.956L694.895 450.784C702.377 450.972 704.941 450.497 710.997 449.764L722.389 423.276C712.404 425.273 680.408 433.343 676.141 435.93C672.481 438.151 678.104 491.496 679.407 511.83Z" fill="#292C47"/>
<path d="M695.179 304.245C695.179 304.245 684.173 301.204 679.973 309.748C675.776 318.292 677.679 334.489 683.225 336.012C688.773 337.537 696.748 335.781 699.052 330.464C701.353 325.147 703.191 317.591 702.64 312.697C702.089 307.804 698.103 305.415 695.179 304.245Z" fill="#EEA886"/>
<path d="M686.101 334.308C686.101 334.308 686.223 340.805 685.505 342.191C684.789 343.576 700.832 343.227 700.832 343.227C700.832 343.227 698.304 335.425 699.737 328.777C701.157 322.199 686.101 334.308 686.101 334.308Z" fill="#EEA886"/>
<path d="M700.601 326.319C700.601 326.319 699.744 328.06 695.592 327.779C691.44 327.497 685.963 322.489 684.201 322.041C682.437 321.595 682.333 320.591 682.333 320.591L681.4 322.248L679.595 322.524C679.595 322.524 680.821 317.503 678.147 315.735C675.472 313.967 679.351 299.729 692.891 303.164C692.891 303.164 703.224 305.055 703.363 310.827C703.501 316.596 702.608 323.261 700.601 326.319Z" fill="#3A3F47"/>
<path d="M684.663 342.024C684.663 342.024 684.708 339.377 685.907 339.123C687.108 338.869 698.517 337.3 699.989 337.879L700.621 341.373C700.621 341.373 697.784 343.12 684.663 342.024Z" fill="#E2D2CA"/>
<path d="M681.361 319.407C681.668 317.237 684.135 314.747 685.548 318.125C686.96 321.503 684.595 326.425 683.009 326.161C681.425 325.896 680.944 322.349 681.361 319.407Z" fill="#EEA886"/>
<path d="M636.871 373.295C636.876 373.292 636.884 373.291 636.889 373.292C636.808 373.329 636.796 373.331 636.871 373.295Z" fill="#323657"/>
<path d="M698.389 305.795C698.389 305.795 711.808 305.164 700.731 326.111L698.389 305.795Z" fill="#3A3F47"/>
<path d="M728.288 518.967L727.289 521.775L685.111 508.708L687.133 503.02L728.288 518.967Z" fill="#918783"/>
<path d="M683.665 506.706H688.459V460.849H683.665V506.706Z" fill="#918783"/>
<path d="M671.924 461.115H700.2V458.412H671.924V461.115Z" fill="#5E5854"/>
<path d="M643.464 518.967L644.463 521.775L686.641 508.708L684.788 502.664L643.464 518.967Z" fill="#918783"/>
<path d="M673.183 521.476V524.741L686.641 508.708L684.788 502.664L673.183 521.476Z" fill="#918783"/>
<path d="M639.523 522.873C639.523 525.051 641.288 526.815 643.464 526.815C645.641 526.815 647.407 525.051 647.407 522.873C647.407 520.697 645.641 518.932 643.464 518.932C641.288 518.932 639.523 520.697 639.523 522.873Z" fill="#BFB2AC"/>
<path d="M672.847 522.873C672.847 525.051 674.612 526.815 676.789 526.815C678.967 526.815 680.731 525.051 680.731 522.873C680.731 520.697 678.967 518.932 676.789 518.932C674.612 518.932 672.847 520.697 672.847 522.873Z" fill="#BFB2AC"/>
<path d="M724.345 522.873C724.345 525.051 726.111 526.815 728.288 526.815C730.465 526.815 732.229 525.051 732.229 522.873C732.229 520.697 730.465 518.932 728.288 518.932C726.111 518.932 724.345 520.697 724.345 522.873Z" fill="#BFB2AC"/>
<path d="M657.436 458.412H714.317C717.108 458.412 719.369 456.151 719.369 453.36V453.23C719.369 450.441 717.108 448.177 714.317 448.177H657.436C654.645 448.177 652.384 450.441 652.384 453.23V453.36C652.384 456.151 654.645 458.412 657.436 458.412Z" fill="#E2D2CA"/>
<path d="M533.407 522.873H537.225V405.165H533.407V522.873Z" fill="#706865"/>
<path d="M567.761 380.364H656.779C659.563 380.364 661.82 378.108 661.82 375.324V315.495C661.82 312.711 659.563 310.453 656.779 310.453H567.761C564.976 310.453 562.72 312.711 562.72 315.495V375.324C562.72 378.108 564.976 380.364 567.761 380.364Z" fill="#5F8BE3"/>
<path d="M566.601 369.408H657.94V314.232H566.601V369.408Z" fill="#F5F7FF"/>
<path d="M566.601 318.623H657.94V314.232H566.601V318.623Z" fill="#CECFD6"/>
<path d="M573.097 366.009H577.871C579.595 366.009 580.991 364.613 580.991 362.891V325.047C580.991 323.324 579.595 321.927 577.871 321.927H573.097C571.375 321.927 569.979 323.324 569.979 325.047V362.891C569.979 364.613 571.375 366.009 573.097 366.009Z" fill="#CECFD6"/>
<path d="M636.952 326.009H653.671C654.603 326.009 655.356 325.256 655.356 324.327V323.611C655.356 322.68 654.603 321.927 653.671 321.927H636.952C636.021 321.927 635.268 322.68 635.268 323.611V324.327C635.268 325.256 636.021 326.009 636.952 326.009Z" fill="#CECFD6"/>
<path d="M638.747 367.136H651.876C653.797 367.136 655.356 365.579 655.356 363.657V332.227C655.356 330.305 653.797 328.748 651.876 328.748H638.747C636.825 328.748 635.268 330.305 635.268 332.227V363.657C635.268 365.579 636.825 367.136 638.747 367.136Z" fill="#CECFD6"/>
<path d="M609.073 374.56C609.073 376.327 610.504 377.757 612.271 377.757C614.036 377.757 615.467 376.327 615.467 374.56C615.467 372.795 614.036 371.364 612.271 371.364C610.504 371.364 609.073 372.795 609.073 374.56Z" fill="#5C5552"/>
<path d="M591.755 398.563V397.32C591.755 397.32 593.503 389.581 605.875 389.581C618.245 389.581 617.996 398.563 617.996 398.563H591.755Z" fill="#2E436E"/>
<path d="M618.147 390.731C618.147 390.731 615.457 390.521 614.473 389.928C613.489 389.333 607.597 385.372 606.215 386.005C604.831 386.64 595.621 389.461 595.941 390.808C596.261 392.155 597.112 392.024 597.763 391.785C598.412 391.548 605.1 390.144 605.689 390.381C605.689 390.381 599.121 392.776 599.096 394.525C599.068 396.275 600.469 396.699 601.092 397.36C601.715 398.021 602.463 399.664 604.156 399.788C605.848 399.915 614.108 397.043 615.807 396.911C617.507 396.779 620.655 397.016 620.868 396.739C621.083 396.461 618.147 390.731 618.147 390.731Z" fill="#EEA886"/>
<path d="M667.073 345.692C675.643 344.185 684.663 342.024 684.663 342.024L700.621 341.373C700.621 341.373 715.269 344.597 721.037 347.203C721.584 347.449 721.587 360.271 723.088 363.631L718.307 373.72C718.307 373.72 715.543 393.707 714.969 402.595C714.707 406.675 715.715 442.03 715.715 442.03C715.715 442.03 714.28 442.737 703.389 443.939C692.497 445.139 665.283 443.504 665.111 442.22C664.94 440.932 670.381 394.316 670.623 391.901C670.992 388.197 669.552 371.076 669.552 371.076C667.5 373.832 662.269 386.281 656.815 392.204C653.608 395.688 637.723 397.825 634.729 397.925C628.213 398.143 616.324 399.44 615.976 398.805C615.7 398.425 614.941 388.253 615.685 388.004C616.339 387.787 638.415 386.516 644.071 383.515C646.14 382.417 652.325 368.929 652.325 368.929C652.325 368.929 662.347 347.816 667.073 345.692Z" fill="#FFC05C"/>
<path d="M698.525 441.01H725.317C730.673 441.01 735.019 436.664 735.019 431.308V386.731C735.019 381.373 730.673 377.029 725.317 377.029H698.525C693.167 377.029 688.824 381.373 688.824 386.731V431.308C688.824 436.664 693.167 441.01 698.525 441.01Z" fill="#E2D2CA"/>
<path d="M697.008 455.865C703.819 455.865 709.341 453.579 713.429 449.067C722.664 438.872 721.003 420.948 720.929 420.191C720.788 418.777 719.528 417.745 718.117 417.887C716.707 418.027 715.673 419.284 715.813 420.697C715.833 420.901 717.305 437.147 709.609 445.627C706.497 449.057 702.375 450.725 697.008 450.725C695.589 450.725 694.439 451.876 694.439 453.295C694.439 454.715 695.589 455.865 697.008 455.865Z" fill="#E2D2CA"/>
<path d="M613.596 336.784C613.596 339.945 612.457 342.84 610.572 345.084C610.129 345.608 609.648 346.099 609.129 346.545C608.983 346.673 608.832 346.799 608.677 346.92C608.503 347.056 608.327 347.188 608.147 347.319C606.447 348.521 604.445 349.325 602.279 349.589C601.896 349.636 601.509 349.665 601.117 349.679C600.977 349.683 600.836 349.685 600.695 349.685C600.277 349.685 599.864 349.664 599.457 349.627C599.001 349.584 598.555 349.516 598.113 349.428C596.161 349.031 594.367 348.192 592.84 347.02C592.381 346.667 591.945 346.284 591.54 345.873C591.46 345.795 591.381 345.713 591.305 345.631C591.016 345.325 590.741 345.005 590.485 344.672C588.797 342.492 587.793 339.756 587.793 336.784C587.793 329.66 593.568 323.884 600.695 323.884C607.819 323.884 613.596 329.66 613.596 336.784Z" fill="#EEF0F7"/>
<path d="M609.097 343.903L608.147 347.319C606.447 348.521 604.445 349.325 602.279 349.589C601.896 349.636 601.509 349.665 601.117 349.679C600.977 349.683 600.836 349.685 600.695 349.685C600.277 349.685 599.864 349.664 599.457 349.627C599.001 349.584 598.555 349.516 598.113 349.428C596.161 349.031 594.367 348.192 592.84 347.02C592.659 345.892 592.463 344.643 592.291 343.475C593.239 343.12 596.257 342.095 598.163 341.451C598.188 341.441 598.215 341.433 598.24 341.425C598.283 341.409 598.324 341.396 598.364 341.383C598.477 341.344 598.585 341.308 598.687 341.273C598.791 341.237 598.891 341.204 598.984 341.172C599.375 341.041 599.649 340.948 599.747 340.916C599.747 340.916 599.748 340.915 599.749 340.915C599.775 340.907 599.788 340.901 599.788 340.901L599.809 340.903L602.371 341.095L602.8 341.127L602.935 341.137C602.935 341.137 602.953 341.143 602.993 341.152C603.147 341.192 603.596 341.309 604.189 341.491C604.191 341.491 604.192 341.492 604.192 341.492C605.711 341.955 608.169 342.836 609.097 343.903Z" fill="#D9C7C1"/>
<path d="M601.367 330.379C601.367 330.379 604.437 330.897 603.916 335.707C603.395 340.513 600.684 340.089 600.501 340.084C600.323 340.076 597.776 340.141 597.641 334.261C597.641 334.261 597.603 329.915 601.367 330.379Z" fill="#EEA987"/>
<path d="M602.712 338.689C602.712 338.689 602.607 340.668 602.792 341.1C602.98 341.531 600.327 342.892 598.677 341.34C598.677 341.34 599.011 339.176 598.907 338.413C598.804 337.649 602.712 338.689 602.712 338.689Z" fill="#EEA987"/>
<path d="M603.979 334.347C603.979 334.347 604.32 333.991 604.44 334.356C604.557 334.721 603.895 336.343 603.936 336.416C603.936 336.416 603.873 336.556 603.793 336.477C603.713 336.399 603.979 334.347 603.979 334.347Z" fill="#EEA987"/>
<path d="M597.676 334.217C597.676 334.217 597.351 333.847 597.217 334.208C597.083 334.568 597.573 336.187 597.635 336.285C597.635 336.285 597.74 336.452 597.824 336.377C597.907 336.301 597.676 334.217 597.676 334.217Z" fill="#EEA987"/>
<path d="M604.175 333.939C604.068 334.596 603.969 335.084 603.969 335.084L603.523 335.668C603.523 335.668 603.549 334.379 603.48 334.175C603.455 334.099 603.424 333.961 603.392 333.815C603.341 333.571 603.289 333.297 603.253 333.205C603.196 333.059 600.62 332.308 598.328 333.363C598.328 333.363 598.345 333.561 598.345 333.783C598.344 334.041 598.316 334.329 598.197 334.373C597.979 334.453 598.069 335.884 598.069 335.884L597.713 335.471C597.713 335.471 597.609 334.724 597.507 333.865C597.507 333.865 597.507 333.863 597.507 333.859C597.484 333.659 597.46 333.452 597.437 333.248C597.387 332.385 597.472 330.816 598.596 329.893C599.355 329.569 600.567 329.293 602.587 329.912C602.587 329.912 603.051 329.941 603.18 330.068C604.439 331.452 604.175 333.939 604.175 333.939Z" fill="#E8734D"/>
<path d="M599.117 339.441C599.117 339.441 599.609 340.12 600.747 340.096C601.887 340.069 602.381 339.476 602.381 339.476C602.381 339.476 601.841 340.604 600.741 340.592C599.643 340.579 599.117 339.441 599.117 339.441Z" fill="#C78D71"/>
<path d="M598.364 341.383C598.364 341.383 599.187 342.816 600.749 342.949C601.74 343.036 602.599 341.78 603 341.164C603 341.164 600.78 340.215 598.364 341.383Z" fill="#EEA987"/>
<path d="M602.715 340.711C602.715 340.711 602.087 341.532 600.749 342.413L601.581 343.695L603 341.164L602.715 340.711Z" fill="#EDDAD3"/>
<path d="M598.74 340.901C598.74 340.901 599.54 341.903 600.749 342.413L599.836 343.733L598.24 341.424L598.74 340.901Z" fill="#EDDAD3"/>
<path d="M600.749 342.413L601.463 343.497C601.463 343.497 600.715 343.921 600.017 343.471L600.749 342.413Z" fill="#5073AB"/>
<path d="M609.921 343.703C609.909 343.745 609.143 346.501 609.129 346.545C608.983 346.673 608.832 346.799 608.677 346.92C608.503 347.056 608.327 347.188 608.147 347.319C606.447 348.521 604.445 349.325 602.279 349.589C602.469 345.123 603 341.164 603 341.164C603.419 341.273 603.815 341.383 604.189 341.491C604.191 341.491 604.192 341.492 604.192 341.492C605.56 341.884 608.696 342.896 609.921 343.703Z" fill="#323657"/>
<path d="M598.113 349.428C596.161 349.031 594.367 348.192 592.84 347.02C592.381 346.667 591.945 346.284 591.54 345.873C591.46 345.795 591.381 345.713 591.305 345.631C591.079 344.672 590.929 344.047 590.919 344.005V344.003C590.919 344.003 592.513 342.953 598.163 341.447C598.163 341.447 598.163 341.448 598.163 341.451C598.163 341.58 598.165 345.203 598.113 349.428Z" fill="#323657"/>
<path d="M601.159 343.617C601.107 344.792 601.101 347.075 601.117 349.679C600.977 349.683 600.836 349.685 600.695 349.685C600.277 349.685 599.864 349.664 599.457 349.627C599.707 346.416 600.124 344.408 600.315 343.613C600.377 343.353 600.415 343.223 600.415 343.223L601.172 343.348C601.167 343.431 601.163 343.52 601.159 343.617Z" fill="#5073AB"/>
<path d="M610.572 345.084C610.129 345.608 609.648 346.099 609.129 346.545C608.983 346.673 608.832 346.799 608.677 346.92C608.677 346.917 609.92 343.704 609.921 343.703C610.245 343.887 610.431 344.741 610.572 345.084Z" fill="#323657"/>
<path d="M591.54 345.873C591.46 345.795 591.381 345.713 591.305 345.631C591.016 345.325 590.741 345.005 590.485 344.672C590.631 344.325 590.776 344.091 590.919 344.003V344.005L591.54 345.873Z" fill="#323657"/>
<path d="M545.309 318.321C544.436 318.321 543.727 317.612 543.727 316.737V294.848C543.727 293.975 544.436 293.267 545.309 293.267C546.184 293.267 546.892 293.975 546.892 294.848V316.737C546.892 317.612 546.184 318.321 545.309 318.321Z" fill="#949494"/>
<path d="M556.255 307.376H534.365C533.491 307.376 532.783 306.667 532.783 305.792C532.783 304.919 533.491 304.211 534.365 304.211H556.255C557.129 304.211 557.836 304.919 557.836 305.792C557.836 306.667 557.129 307.376 556.255 307.376Z" fill="#949494"/>
<defs>
<linearGradient id="paint0_linear_1_2" x1="234.012" y1="89.8214" x2="620.156" y2="89.8214" gradientUnits="userSpaceOnUse">
<stop stop-color="#40D5E6"/>
<stop offset="1" stop-color="#5577FF"/>
</linearGradient>
</defs>
</svg>
