<svg width="200" height="200" viewBox="0 0 200 200" fill="none" xmlns="http://www.w3.org/2000/svg">
<mask id="path-1-inside-1_0_3" fill="white">
<path fill-rule="evenodd" clip-rule="evenodd" d="M75.3994 147.6C82.9976 151.154 91.328 153.075 100.391 153.362V183.904C98.7383 183.867 97.093 183.421 95.6122 182.566L32 145.84C28.906 144.053 27 140.752 27 137.179V63.7265C27 60.1538 28.906 56.8526 32 55.0662L48.7994 45.3671V101.2C48.7994 112.533 51.1994 122.133 55.9994 130C60.7994 137.867 67.266 143.733 75.3994 147.6ZM100.61 183.906C100.573 183.906 100.537 183.906 100.5 183.905C100.537 183.905 100.573 183.904 100.61 183.904V183.906ZM100.391 133.314V116.63L99.9929 116.924L99.9126 116.984C99.9035 116.99 99.8906 116.984 99.8906 116.973V116.968C99.8906 116.981 99.8756 116.989 99.8651 116.981L99.8395 116.962L99.7883 116.924L99.3906 116.63L97.0441 114.891L88.3944 108.484C87.4198 107.762 86.9326 107.401 86.7225 106.869C86.5125 106.337 86.622 105.74 86.8411 104.547L95.0212 60.0114C95.0859 59.6591 95.1182 59.483 95.171 59.3337C95.1991 59.2542 95.2319 59.1772 95.2692 59.1029C89.5067 57.0099 85.3906 51.4856 85.3906 45C85.3906 36.7157 92.1064 30 100.391 30V17.0025C98.7383 17.039 97.093 17.4848 95.6122 18.3397L71.5994 32.2035V101.6C71.5994 112.133 74.3327 120.067 79.7994 125.4C84.9392 130.295 91.876 132.944 100.61 133.346V133.301L100.519 133.306L100.391 133.314ZM99.8936 59.9919C99.8916 59.9919 99.8896 59.9918 99.8876 59.9917C99.8906 60.1133 99.8906 60.2621 99.8906 60.4549C99.8906 60.2622 99.8906 60.1135 99.8936 59.9919ZM100.61 17.0025C100.573 17.0016 100.537 17.001 100.5 17.0006C100.537 17.0002 100.573 17 100.61 17V17.0025Z"/>
</mask>
<path fill-rule="evenodd" clip-rule="evenodd" d="M75.3994 147.6C82.9976 151.154 91.328 153.075 100.391 153.362V183.904C98.7383 183.867 97.093 183.421 95.6122 182.566L32 145.84C28.906 144.053 27 140.752 27 137.179V63.7265C27 60.1538 28.906 56.8526 32 55.0662L48.7994 45.3671V101.2C48.7994 112.533 51.1994 122.133 55.9994 130C60.7994 137.867 67.266 143.733 75.3994 147.6ZM100.61 183.906C100.573 183.906 100.537 183.906 100.5 183.905C100.537 183.905 100.573 183.904 100.61 183.904V183.906ZM100.391 133.314V116.63L99.9929 116.924L99.9126 116.984C99.9035 116.99 99.8906 116.984 99.8906 116.973V116.968C99.8906 116.981 99.8756 116.989 99.8651 116.981L99.8395 116.962L99.7883 116.924L99.3906 116.63L97.0441 114.891L88.3944 108.484C87.4198 107.762 86.9326 107.401 86.7225 106.869C86.5125 106.337 86.622 105.74 86.8411 104.547L95.0212 60.0114C95.0859 59.6591 95.1182 59.483 95.171 59.3337C95.1991 59.2542 95.2319 59.1772 95.2692 59.1029C89.5067 57.0099 85.3906 51.4856 85.3906 45C85.3906 36.7157 92.1064 30 100.391 30V17.0025C98.7383 17.039 97.093 17.4848 95.6122 18.3397L71.5994 32.2035V101.6C71.5994 112.133 74.3327 120.067 79.7994 125.4C84.9392 130.295 91.876 132.944 100.61 133.346V133.301L100.519 133.306L100.391 133.314ZM99.8936 59.9919C99.8916 59.9919 99.8896 59.9918 99.8876 59.9917C99.8906 60.1133 99.8906 60.2621 99.8906 60.4549C99.8906 60.2622 99.8906 60.1135 99.8936 59.9919ZM100.61 17.0025C100.573 17.0016 100.537 17.001 100.5 17.0006C100.537 17.0002 100.573 17 100.61 17V17.0025Z" fill="#67B3FF"/>
<path d="M99.8906 115.5L100.348 115.298L99.8906 114.265L99.4334 115.298L99.8906 115.5ZM99.4334 115.298L98.9334 116.427L99.8478 116.832L100.348 115.702L99.4334 115.298ZM99.4334 115.702L99.9334 116.832L100.848 116.427L100.348 115.298L99.4334 115.702ZM100.391 153.362H101.391V152.393L100.422 152.362L100.391 153.362ZM75.3994 147.6L74.97 148.503L74.9757 148.506L75.3994 147.6ZM100.391 183.904L100.369 184.903L101.391 184.926V183.904H100.391ZM95.6122 182.566L96.1122 181.7H96.1122L95.6122 182.566ZM32 145.84L32.5 144.974H32.5L32 145.84ZM32 55.0662L32.5 55.9323H32.5L32 55.0662ZM48.7994 45.3671H49.7994V43.6351L48.2994 44.5011L48.7994 45.3671ZM100.5 183.905L100.489 182.905L100.489 184.905L100.5 183.905ZM100.61 183.906V184.906H101.61V183.906H100.61ZM100.61 183.904H101.61V182.881L100.588 182.904L100.61 183.904ZM100.391 116.63H101.391V114.644L99.7954 115.826L100.391 116.63ZM100.391 133.314H99.3906V134.376L100.451 134.312L100.391 133.314ZM99.9929 116.924L99.3977 116.121H99.3977L99.9929 116.924ZM99.9126 116.984L100.508 117.787L100.508 117.787L99.9126 116.984ZM99.8651 116.981L99.2698 117.785L99.27 117.785L99.8651 116.981ZM99.7883 116.924L100.384 116.121H100.384L99.7883 116.924ZM99.3906 116.63L98.7954 117.433H98.7954L99.3906 116.63ZM97.0441 114.891L97.6393 114.088L97.0441 114.891ZM88.3944 108.484L88.9896 107.681L88.3944 108.484ZM86.8411 104.547L87.8246 104.728L86.8411 104.547ZM95.0212 60.0114L96.0047 60.1921L96.0047 60.1921L95.0212 60.0114ZM95.171 59.3337L94.2281 59.0006L94.2281 59.0006L95.171 59.3337ZM95.2692 59.1029L96.163 59.5513L96.6669 58.5467L95.6106 58.163L95.2692 59.1029ZM100.391 30V31H101.391V30H100.391ZM100.391 17.0025H101.391V15.9801L100.368 16.0027L100.391 17.0025ZM95.6122 18.3397L96.1122 19.2058V19.2058L95.6122 18.3397ZM71.5994 32.2035L71.0994 31.3375L70.5994 31.6262V32.2035H71.5994ZM79.7994 125.4L79.101 126.116L79.1097 126.124L79.7994 125.4ZM100.61 133.346L100.564 134.345L101.61 134.393V133.346H100.61ZM100.61 133.301H101.61V132.236L100.548 132.303L100.61 133.301ZM100.519 133.306L100.579 134.304L100.582 134.304L100.519 133.306ZM99.8936 59.9919L100.893 60.0167L100.918 59.0244L99.9258 58.9924L99.8936 59.9919ZM99.8876 59.9917L99.9198 58.9922L98.8616 58.9582L98.8879 60.0166L99.8876 59.9917ZM100.5 17.0006L100.489 16.0007L100.489 18.0006L100.5 17.0006ZM100.61 17.0025L100.588 18.0022L101.61 18.0249V17.0025H100.61ZM100.61 17H101.61V15.9998L100.61 16L100.61 17ZM100.422 152.362C91.4843 152.079 83.2887 150.186 75.8231 146.694L74.9757 148.506C82.7066 152.122 91.1718 154.07 100.359 154.361L100.422 152.362ZM101.391 183.904V153.362H99.3906V183.904H101.391ZM95.1122 183.432C96.741 184.373 98.5511 184.863 100.369 184.903L100.413 182.904C98.9255 182.871 97.445 182.47 96.1122 181.7L95.1122 183.432ZM31.5 146.706L95.1122 183.432L96.1122 181.7L32.5 144.974L31.5 146.706ZM26 137.179C26 141.109 28.0966 144.741 31.5 146.706L32.5 144.974C29.7154 143.366 28 140.395 28 137.179H26ZM26 63.7265V137.179H28V63.7265H26ZM31.5 54.2002C28.0966 56.1652 26 59.7966 26 63.7265H28C28 60.5111 29.7154 57.54 32.5 55.9323L31.5 54.2002ZM48.2994 44.5011L31.5 54.2002L32.5 55.9323L49.2994 46.2331L48.2994 44.5011ZM49.7994 101.2V45.3671H47.7994V101.2H49.7994ZM56.853 129.479C52.1685 121.802 49.7994 112.392 49.7994 101.2H47.7994C47.7994 112.675 50.2302 122.465 55.1457 130.521L56.853 129.479ZM75.8287 146.697C67.8753 142.916 61.5543 137.184 56.853 129.479L55.1457 130.521C60.0445 138.549 66.6568 144.551 74.97 148.503L75.8287 146.697ZM100.489 184.905C100.529 184.906 100.569 184.906 100.61 184.906V182.906C100.577 182.906 100.544 182.906 100.511 182.905L100.489 184.905ZM100.588 182.904C100.555 182.905 100.522 182.905 100.489 182.905L100.511 184.905C100.552 184.905 100.592 184.904 100.632 184.903L100.588 182.904ZM101.61 183.906V183.904H99.61V183.906H101.61ZM99.3906 116.63V133.314H101.391V116.63H99.3906ZM100.588 117.728L100.986 117.433L99.7954 115.826L99.3977 116.121L100.588 117.728ZM100.508 117.787L100.588 117.728L99.3977 116.121L99.3174 116.18L100.508 117.787ZM98.8906 116.973C98.8906 117.806 99.839 118.283 100.508 117.787L99.3175 116.18C99.968 115.698 100.891 116.162 100.891 116.973H98.8906ZM98.8906 116.968V116.973H100.891V116.968H98.8906ZM99.27 117.785C99.9406 118.281 100.891 117.803 100.891 116.968H98.8906C98.8906 116.16 99.8107 115.697 100.46 116.177L99.27 117.785ZM99.2442 117.766L99.2698 117.785L100.46 116.177L100.435 116.159L99.2442 117.766ZM99.1931 117.728L99.2442 117.766L100.435 116.159L100.384 116.121L99.1931 117.728ZM98.7954 117.433L99.1931 117.728L100.384 116.121L99.9858 115.826L98.7954 117.433ZM96.4489 115.695L98.7954 117.433L99.9859 115.826L97.6393 114.088L96.4489 115.695ZM87.7991 109.288L96.4489 115.695L97.6393 114.088L88.9896 107.681L87.7991 109.288ZM85.7923 107.236C85.9728 107.693 86.2624 108.037 86.5966 108.343C86.9137 108.633 87.3285 108.939 87.7991 109.288L88.9896 107.681C88.4857 107.307 88.1697 107.072 87.9469 106.868C87.7414 106.68 87.6823 106.577 87.6527 106.502L85.7923 107.236ZM85.8576 104.367C85.7517 104.943 85.6574 105.449 85.6239 105.878C85.5886 106.33 85.6119 106.779 85.7923 107.236L87.6527 106.502C87.6231 106.427 87.5961 106.312 87.6178 106.034C87.6414 105.733 87.7114 105.345 87.8246 104.728L85.8576 104.367ZM94.0376 59.8308L85.8576 104.367L87.8246 104.728L96.0047 60.1921L94.0376 59.8308ZM94.2281 59.0006C94.1425 59.2429 94.0958 59.5142 94.0376 59.8308L96.0047 60.1921C96.076 59.8041 96.094 59.7231 96.1139 59.6669L94.2281 59.0006ZM94.3753 58.6546C94.3194 58.766 94.2702 58.8815 94.2281 59.0006L96.1139 59.6669C96.128 59.6269 96.1444 59.5884 96.163 59.5513L94.3753 58.6546ZM95.6106 58.163C90.2309 56.209 86.3906 51.0517 86.3906 45H84.3906C84.3906 51.9196 88.7826 57.8108 94.9277 60.0429L95.6106 58.163ZM86.3906 45C86.3906 37.268 92.6586 31 100.391 31V29C91.5541 29 84.3906 36.1634 84.3906 45H86.3906ZM99.3906 17.0025V30H101.391V17.0025H99.3906ZM96.1122 19.2058C97.445 18.4363 98.9255 18.0351 100.413 18.0022L100.368 16.0027C98.5511 16.0429 96.741 16.5333 95.1122 17.4737L96.1122 19.2058ZM72.0994 33.0696L96.1122 19.2058L95.1122 17.4737L71.0994 31.3375L72.0994 33.0696ZM72.5994 101.6V32.2035H70.5994V101.6H72.5994ZM80.4977 124.684C75.2878 119.601 72.5994 111.968 72.5994 101.6H70.5994C70.5994 112.298 73.3776 120.532 79.1011 126.116L80.4977 124.684ZM100.656 132.347C92.1047 131.953 85.4165 129.369 80.489 124.676L79.1097 126.124C84.4618 131.221 91.6474 133.934 100.564 134.345L100.656 132.347ZM99.61 133.301V133.346H101.61V133.301H99.61ZM100.582 134.304L100.672 134.299L100.548 132.303L100.457 132.308L100.582 134.304ZM100.451 134.312L100.579 134.304L100.459 132.308L100.331 132.316L100.451 134.312ZM99.9258 58.9924C99.9254 58.9924 99.9249 58.9924 99.9238 58.9924C99.9229 58.9923 99.9214 58.9923 99.9198 58.9922L99.8554 60.9912C99.8558 60.9912 99.8563 60.9912 99.8574 60.9913C99.8584 60.9913 99.8599 60.9913 99.8615 60.9914L99.9258 58.9924ZM100.891 60.4549C100.891 60.2668 100.891 60.1037 100.887 59.9669L98.8879 60.0166C98.8906 60.1229 98.8906 60.2574 98.8906 60.4549H100.891ZM98.8939 59.9671C98.8906 60.1039 98.8906 60.2669 98.8906 60.4549H100.891C100.891 60.2575 100.891 60.123 100.893 60.0167L98.8939 59.9671ZM100.489 18.0006C100.522 18.0009 100.555 18.0015 100.588 18.0022L100.632 16.0027C100.592 16.0018 100.552 16.0011 100.511 16.0007L100.489 18.0006ZM100.61 16C100.569 16 100.529 16.0002 100.489 16.0007L100.511 18.0006C100.544 18.0002 100.577 18 100.61 18L100.61 16ZM101.61 17.0025V17H99.61V17.0025H101.61Z" fill="#67B3FF" mask="url(#path-1-inside-1_0_3)"/>
<mask id="path-3-inside-2_0_3" fill="white">
<path fill-rule="evenodd" clip-rule="evenodd" d="M124.601 147.6C117.002 151.154 108.672 153.075 99.6094 153.362V183.904C101.262 183.867 102.907 183.421 104.388 182.566L168 145.84C171.094 144.053 173 140.752 173 137.179V63.7265C173 60.1538 171.094 56.8526 168 55.0662L151.201 45.3671V101.2C151.201 112.533 148.801 122.133 144.001 130C139.201 137.867 132.734 143.733 124.601 147.6ZM99.39 183.906C99.4267 183.906 99.4633 183.906 99.5 183.905C99.4633 183.905 99.4267 183.904 99.39 183.904V183.906ZM99.6094 133.314V116.63L100.007 116.924L100.087 116.984C100.097 116.99 100.109 116.984 100.109 116.973V116.968C100.109 116.981 100.124 116.989 100.135 116.981L100.161 116.962L100.212 116.924L100.609 116.63L102.956 114.891L111.606 108.484C112.58 107.762 113.067 107.401 113.277 106.869C113.488 106.337 113.378 105.74 113.159 104.547L104.979 60.0114C104.914 59.6591 104.882 59.483 104.829 59.3337C104.801 59.2542 104.768 59.1772 104.731 59.1029C110.493 57.0099 114.609 51.4856 114.609 45C114.609 36.7157 107.894 30 99.6094 30V17.0025C101.262 17.039 102.907 17.4848 104.388 18.3397L128.401 32.2035V101.6C128.401 112.133 125.667 120.067 120.201 125.4C115.061 130.295 108.124 132.944 99.39 133.346V133.301L99.4807 133.306L99.6094 133.314ZM100.106 59.9919C100.108 59.9919 100.11 59.9918 100.112 59.9917C100.109 60.1133 100.109 60.2621 100.109 60.4549C100.109 60.2622 100.109 60.1135 100.106 59.9919ZM99.39 17.0025C99.4266 17.0016 99.4633 17.001 99.4999 17.0006C99.4633 17.0002 99.4266 17 99.39 17V17.0025Z"/>
</mask>
<path fill-rule="evenodd" clip-rule="evenodd" d="M124.601 147.6C117.002 151.154 108.672 153.075 99.6094 153.362V183.904C101.262 183.867 102.907 183.421 104.388 182.566L168 145.84C171.094 144.053 173 140.752 173 137.179V63.7265C173 60.1538 171.094 56.8526 168 55.0662L151.201 45.3671V101.2C151.201 112.533 148.801 122.133 144.001 130C139.201 137.867 132.734 143.733 124.601 147.6ZM99.39 183.906C99.4267 183.906 99.4633 183.906 99.5 183.905C99.4633 183.905 99.4267 183.904 99.39 183.904V183.906ZM99.6094 133.314V116.63L100.007 116.924L100.087 116.984C100.097 116.99 100.109 116.984 100.109 116.973V116.968C100.109 116.981 100.124 116.989 100.135 116.981L100.161 116.962L100.212 116.924L100.609 116.63L102.956 114.891L111.606 108.484C112.58 107.762 113.067 107.401 113.277 106.869C113.488 106.337 113.378 105.74 113.159 104.547L104.979 60.0114C104.914 59.6591 104.882 59.483 104.829 59.3337C104.801 59.2542 104.768 59.1772 104.731 59.1029C110.493 57.0099 114.609 51.4856 114.609 45C114.609 36.7157 107.894 30 99.6094 30V17.0025C101.262 17.039 102.907 17.4848 104.388 18.3397L128.401 32.2035V101.6C128.401 112.133 125.667 120.067 120.201 125.4C115.061 130.295 108.124 132.944 99.39 133.346V133.301L99.4807 133.306L99.6094 133.314ZM100.106 59.9919C100.108 59.9919 100.11 59.9918 100.112 59.9917C100.109 60.1133 100.109 60.2621 100.109 60.4549C100.109 60.2622 100.109 60.1135 100.106 59.9919ZM99.39 17.0025C99.4266 17.0016 99.4633 17.001 99.4999 17.0006C99.4633 17.0002 99.4266 17 99.39 17V17.0025Z" fill="#017EFF"/>
<path d="M100.109 115.5L99.6522 115.298L100.109 114.265L100.567 115.298L100.109 115.5ZM100.567 115.298L101.067 116.427L100.152 116.832L99.6522 115.702L100.567 115.298ZM100.567 115.702L100.067 116.832L99.1522 116.427L99.6522 115.298L100.567 115.702ZM99.6094 153.362H98.6094V152.393L99.5777 152.362L99.6094 153.362ZM124.601 147.6L125.03 148.503L125.024 148.506L124.601 147.6ZM99.6094 183.904L99.6315 184.903L98.6094 184.926V183.904H99.6094ZM104.388 182.566L103.888 181.7H103.888L104.388 182.566ZM168 145.84L167.5 144.974H167.5L168 145.84ZM168 55.0662L167.5 55.9323H167.5L168 55.0662ZM151.201 45.3671H150.201V43.6351L151.701 44.5011L151.201 45.3671ZM99.5 183.905L99.5112 182.905L99.5112 184.905L99.5 183.905ZM99.39 183.906V184.906H98.39V183.906H99.39ZM99.39 183.904H98.39V182.881L99.4121 182.904L99.39 183.904ZM99.6094 116.63H98.6094V114.644L100.205 115.826L99.6094 116.63ZM99.6094 133.314H100.609V134.376L99.5495 134.312L99.6094 133.314ZM100.007 116.924L100.602 116.121H100.602L100.007 116.924ZM100.087 116.984L99.4923 117.787L99.4922 117.787L100.087 116.984ZM100.135 116.981L100.73 117.785L100.73 117.785L100.135 116.981ZM100.212 116.924L99.6164 116.121H99.6164L100.212 116.924ZM100.609 116.63L101.205 117.433H101.205L100.609 116.63ZM102.956 114.891L102.361 114.088L102.956 114.891ZM111.606 108.484L111.01 107.681L111.606 108.484ZM113.159 104.547L112.175 104.728L113.159 104.547ZM104.979 60.0114L103.995 60.1921L103.995 60.1921L104.979 60.0114ZM104.829 59.3337L105.772 59.0006L105.772 59.0006L104.829 59.3337ZM104.731 59.1029L103.837 59.5513L103.333 58.5467L104.389 58.163L104.731 59.1029ZM99.6094 30V31H98.6094V30H99.6094ZM99.6094 17.0025H98.6094V15.9801L99.6315 16.0027L99.6094 17.0025ZM104.388 18.3397L103.888 19.2058V19.2058L104.388 18.3397ZM128.401 32.2035L128.901 31.3375L129.401 31.6262V32.2035H128.401ZM120.201 125.4L120.899 126.116L120.89 126.124L120.201 125.4ZM99.39 133.346L99.436 134.345L98.39 134.393V133.346H99.39ZM99.39 133.301H98.39V132.236L99.4522 132.303L99.39 133.301ZM99.4807 133.306L99.4208 134.304L99.4185 134.304L99.4807 133.306ZM100.106 59.9919L99.1067 60.0167L99.0821 59.0244L100.074 58.9924L100.106 59.9919ZM100.112 59.9917L100.08 58.9922L101.138 58.9582L101.112 60.0166L100.112 59.9917ZM99.4999 17.0006L99.5111 16.0007L99.5111 18.0006L99.4999 17.0006ZM99.39 17.0025L99.4122 18.0022L98.39 18.0249V17.0025H99.39ZM99.39 17H98.39V15.9998L99.3902 16L99.39 17ZM99.5777 152.362C108.516 152.079 116.711 150.186 124.177 146.694L125.024 148.506C117.293 152.122 108.828 154.07 99.6411 154.361L99.5777 152.362ZM98.6094 183.904V153.362H100.609V183.904H98.6094ZM104.888 183.432C103.259 184.373 101.449 184.863 99.6315 184.903L99.5873 182.904C101.075 182.871 102.555 182.47 103.888 181.7L104.888 183.432ZM168.5 146.706L104.888 183.432L103.888 181.7L167.5 144.974L168.5 146.706ZM174 137.179C174 141.109 171.903 144.741 168.5 146.706L167.5 144.974C170.285 143.366 172 140.395 172 137.179H174ZM174 63.7265V137.179H172V63.7265H174ZM168.5 54.2002C171.903 56.1652 174 59.7966 174 63.7265H172C172 60.5111 170.285 57.54 167.5 55.9323L168.5 54.2002ZM151.701 44.5011L168.5 54.2002L167.5 55.9323L150.701 46.2331L151.701 44.5011ZM150.201 101.2V45.3671H152.201V101.2H150.201ZM143.147 129.479C147.831 121.802 150.201 112.392 150.201 101.2H152.201C152.201 112.675 149.77 122.465 144.854 130.521L143.147 129.479ZM124.171 146.697C132.125 142.916 138.446 137.184 143.147 129.479L144.854 130.521C139.956 138.549 133.343 144.551 125.03 148.503L124.171 146.697ZM99.5112 184.905C99.4709 184.906 99.4306 184.906 99.39 184.906V182.906C99.4228 182.906 99.4557 182.906 99.4887 182.905L99.5112 184.905ZM99.4121 182.904C99.4451 182.905 99.4781 182.905 99.5112 182.905L99.4887 184.905C99.4485 184.905 99.4082 184.904 99.3679 184.903L99.4121 182.904ZM98.39 183.906V183.904H100.39V183.906H98.39ZM100.609 116.63V133.314H98.6094V116.63H100.609ZM99.4119 117.728L99.0142 117.433L100.205 115.826L100.602 116.121L99.4119 117.728ZM99.4922 117.787L99.4118 117.728L100.602 116.121L100.683 116.18L99.4922 117.787ZM101.109 116.973C101.109 117.806 100.161 118.283 99.4923 117.787L100.683 116.18C100.032 115.698 99.1094 116.162 99.1094 116.973H101.109ZM101.109 116.968V116.973H99.1094V116.968H101.109ZM100.73 117.785C100.059 118.281 99.1094 117.803 99.1094 116.968H101.109C101.109 116.16 100.189 115.697 99.5399 116.177L100.73 117.785ZM100.756 117.766L100.73 117.785L99.5397 116.177L99.5653 116.159L100.756 117.766ZM100.807 117.728L100.756 117.766L99.5653 116.159L99.6164 116.121L100.807 117.728ZM101.205 117.433L100.807 117.728L99.6164 116.121L100.014 115.826L101.205 117.433ZM103.551 115.695L101.205 117.433L100.014 115.826L102.361 114.088L103.551 115.695ZM112.201 109.288L103.551 115.695L102.361 114.088L111.01 107.681L112.201 109.288ZM114.208 107.236C114.027 107.693 113.738 108.037 113.403 108.343C113.086 108.633 112.672 108.939 112.201 109.288L111.01 107.681C111.514 107.307 111.83 107.072 112.053 106.868C112.259 106.68 112.318 106.577 112.347 106.502L114.208 107.236ZM114.142 104.367C114.248 104.943 114.343 105.449 114.376 105.878C114.411 106.33 114.388 106.779 114.208 107.236L112.347 106.502C112.377 106.427 112.404 106.312 112.382 106.034C112.359 105.733 112.289 105.345 112.175 104.728L114.142 104.367ZM105.962 59.8308L114.142 104.367L112.175 104.728L103.995 60.1921L105.962 59.8308ZM105.772 59.0006C105.857 59.2429 105.904 59.5142 105.962 59.8308L103.995 60.1921C103.924 59.8041 103.906 59.7231 103.886 59.6669L105.772 59.0006ZM105.625 58.6546C105.681 58.766 105.73 58.8815 105.772 59.0006L103.886 59.6669C103.872 59.6269 103.856 59.5884 103.837 59.5513L105.625 58.6546ZM104.389 58.163C109.769 56.209 113.609 51.0517 113.609 45H115.609C115.609 51.9196 111.217 57.8108 105.072 60.0429L104.389 58.163ZM113.609 45C113.609 37.268 107.341 31 99.6094 31V29C108.446 29 115.609 36.1634 115.609 45H113.609ZM100.609 17.0025V30H98.6094V17.0025H100.609ZM103.888 19.2058C102.555 18.4363 101.075 18.0351 99.5872 18.0022L99.6315 16.0027C101.449 16.0429 103.259 16.5333 104.888 17.4737L103.888 19.2058ZM127.901 33.0696L103.888 19.2058L104.888 17.4737L128.901 31.3375L127.901 33.0696ZM127.401 101.6V32.2035H129.401V101.6H127.401ZM119.502 124.684C124.712 119.601 127.401 111.968 127.401 101.6H129.401C129.401 112.298 126.622 120.532 120.899 126.116L119.502 124.684ZM99.344 132.347C107.895 131.953 114.584 129.369 119.511 124.676L120.89 126.124C115.538 131.221 108.353 133.934 99.436 134.345L99.344 132.347ZM100.39 133.301V133.346H98.39V133.301H100.39ZM99.4185 134.304L99.3278 134.299L99.4522 132.303L99.5429 132.308L99.4185 134.304ZM99.5495 134.312L99.4208 134.304L99.5406 132.308L99.6693 132.316L99.5495 134.312ZM100.074 58.9924C100.075 58.9924 100.075 58.9924 100.076 58.9924C100.077 58.9923 100.079 58.9923 100.08 58.9922L100.145 60.9912C100.144 60.9912 100.144 60.9912 100.143 60.9913C100.142 60.9913 100.14 60.9913 100.139 60.9914L100.074 58.9924ZM99.1094 60.4549C99.1094 60.2668 99.1093 60.1037 99.1127 59.9669L101.112 60.0166C101.109 60.1229 101.109 60.2574 101.109 60.4549H99.1094ZM101.106 59.9671C101.109 60.1039 101.109 60.2669 101.109 60.4549H99.1094C99.1094 60.2575 99.1093 60.123 99.1067 60.0167L101.106 59.9671ZM99.5111 18.0006C99.4781 18.0009 99.4452 18.0015 99.4122 18.0022L99.3678 16.0027C99.4081 16.0018 99.4484 16.0011 99.4887 16.0007L99.5111 18.0006ZM99.3902 16C99.4305 16 99.4708 16.0002 99.5111 16.0007L99.4887 18.0006C99.4557 18.0002 99.4228 18 99.3898 18L99.3902 16ZM98.39 17.0025V17H100.39V17.0025H98.39Z" fill="#017EFF" mask="url(#path-3-inside-2_0_3)"/>
</svg>
